<mxfile host="app.diagrams.net" agent="Mozilla/5.0 (Windows NT 10.0; Win64; x64; rv:138.0) Gecko/20100101 Firefox/138.0" version="27.0.5">
  <diagram name="Page-1" id="GL0nYLtAOGsHwW0dZ98m">
    <mxGraphModel dx="1209" dy="725" grid="1" gridSize="10" guides="1" tooltips="1" connect="1" arrows="1" fold="1" page="1" pageScale="1" pageWidth="3300" pageHeight="4681" math="0" shadow="0">
      <root>
        <mxCell id="0" />
        <mxCell id="1" parent="0" />
        <mxCell id="qPN71Jb9sZiX0jhi6P6f-3" style="edgeStyle=orthogonalEdgeStyle;rounded=0;orthogonalLoop=1;jettySize=auto;html=1;exitX=1;exitY=0.5;exitDx=0;exitDy=0;entryX=0;entryY=0.5;entryDx=0;entryDy=0;" edge="1" parent="1" source="qPN71Jb9sZiX0jhi6P6f-1" target="qPN71Jb9sZiX0jhi6P6f-2">
          <mxGeometry relative="1" as="geometry" />
        </mxCell>
        <mxCell id="qPN71Jb9sZiX0jhi6P6f-1" value="data&#xa;Symptom Back&#xa;Pains" style="rectangle;fillColor=#fff2cc;strokeColor=#d6b656;" name="data" vertex="1" parent="1">
          <mxGeometry x="340" y="230" width="100" height="50" as="geometry" />
        </mxCell>
        <mxCell id="qPN71Jb9sZiX0jhi6P6f-6" style="edgeStyle=orthogonalEdgeStyle;rounded=0;orthogonalLoop=1;jettySize=auto;html=1;exitX=1;exitY=0.5;exitDx=0;exitDy=0;entryX=0.5;entryY=0;entryDx=0;entryDy=0;" edge="1" parent="1" source="qPN71Jb9sZiX0jhi6P6f-2" target="qPN71Jb9sZiX0jhi6P6f-5">
          <mxGeometry relative="1" as="geometry" />
        </mxCell>
        <mxCell id="qPN71Jb9sZiX0jhi6P6f-2" value="transform" style="rounded=1;whiteSpace=wrap;html=1;arcSize=50;fillColor=#f8cecc;strokeColor=#b85450;" name="transform" vertex="1" parent="1">
          <mxGeometry x="520" y="230" width="100" height="50" as="geometry" />
        </mxCell>
        <mxCell id="qPN71Jb9sZiX0jhi6P6f-8" style="edgeStyle=orthogonalEdgeStyle;rounded=0;orthogonalLoop=1;jettySize=auto;html=1;exitX=0;exitY=0.5;exitDx=0;exitDy=0;entryX=0.5;entryY=0;entryDx=0;entryDy=0;" edge="1" parent="1" source="qPN71Jb9sZiX0jhi6P6f-5" target="qPN71Jb9sZiX0jhi6P6f-7">
          <mxGeometry relative="1" as="geometry" />
        </mxCell>
        <mxCell id="qPN71Jb9sZiX0jhi6P6f-5" value="data&#xa;Structured Data" style="rectangle;fillColor=#fff2cc;strokeColor=#d6b656;" name="data" vertex="1" parent="1">
          <mxGeometry x="650" y="330" width="100" height="50" as="geometry" />
        </mxCell>
        <mxCell id="qPN71Jb9sZiX0jhi6P6f-13" style="edgeStyle=orthogonalEdgeStyle;rounded=0;orthogonalLoop=1;jettySize=auto;html=1;exitX=0;exitY=0.5;exitDx=0;exitDy=0;entryX=0.5;entryY=0;entryDx=0;entryDy=0;" edge="1" parent="1" source="qPN71Jb9sZiX0jhi6P6f-7" target="qPN71Jb9sZiX0jhi6P6f-12">
          <mxGeometry relative="1" as="geometry" />
        </mxCell>
        <mxCell id="qPN71Jb9sZiX0jhi6P6f-7" value="transform" style="rounded=1;whiteSpace=wrap;html=1;arcSize=50;fillColor=#f8cecc;strokeColor=#b85450;" name="transform" vertex="1" parent="1">
          <mxGeometry x="520" y="430" width="100" height="50" as="geometry" />
        </mxCell>
        <mxCell id="qPN71Jb9sZiX0jhi6P6f-9" value="actor&#xa;Physicians" style="triangle;fillColor=#ffe6cc;strokeColor=#d79b00;" name="actor" vertex="1" parent="1">
          <mxGeometry x="700" y="430" width="100" height="50" as="geometry" />
        </mxCell>
        <mxCell id="qPN71Jb9sZiX0jhi6P6f-11" value="&lt;div&gt;error&lt;/div&gt;&lt;div&gt;&amp;lt;--&lt;/div&gt;" style="text;html=1;align=center;verticalAlign=middle;whiteSpace=wrap;rounded=0;dashed=1;fillColor=#f5f5f5;fontColor=#333333;strokeColor=#666666;strokeWidth=2;" name="text" vertex="1" parent="1">
          <mxGeometry x="620" y="440" width="80" height="30" as="geometry" />
        </mxCell>
        <mxCell id="qPN71Jb9sZiX0jhi6P6f-15" style="edgeStyle=orthogonalEdgeStyle;rounded=0;orthogonalLoop=1;jettySize=auto;html=1;exitX=0.5;exitY=1;exitDx=0;exitDy=0;entryX=0;entryY=0.5;entryDx=0;entryDy=0;" edge="1" parent="1" source="qPN71Jb9sZiX0jhi6P6f-12" target="qPN71Jb9sZiX0jhi6P6f-14">
          <mxGeometry relative="1" as="geometry" />
        </mxCell>
        <mxCell id="qPN71Jb9sZiX0jhi6P6f-12" value="data&#xa;Fuzzified Values" style="rectangle;fillColor=#fff2cc;strokeColor=#d6b656;" name="data" vertex="1" parent="1">
          <mxGeometry x="390" y="530" width="100" height="50" as="geometry" />
        </mxCell>
        <mxCell id="qPN71Jb9sZiX0jhi6P6f-17" style="edgeStyle=orthogonalEdgeStyle;rounded=0;orthogonalLoop=1;jettySize=auto;html=1;exitX=1;exitY=0.5;exitDx=0;exitDy=0;entryX=0.5;entryY=0;entryDx=0;entryDy=0;" edge="1" parent="1" source="qPN71Jb9sZiX0jhi6P6f-14" target="qPN71Jb9sZiX0jhi6P6f-16">
          <mxGeometry relative="1" as="geometry" />
        </mxCell>
        <mxCell id="qPN71Jb9sZiX0jhi6P6f-14" value="generate:train" style="rounded=1;whiteSpace=wrap;html=1;arcSize=50;fillColor=#e1d5e7;strokeColor=#9673a6;" name="generate:train" vertex="1" parent="1">
          <mxGeometry x="520" y="640" width="100" height="50" as="geometry" />
        </mxCell>
        <mxCell id="qPN71Jb9sZiX0jhi6P6f-20" style="edgeStyle=orthogonalEdgeStyle;rounded=0;orthogonalLoop=1;jettySize=auto;html=1;exitX=0.5;exitY=1;exitDx=0;exitDy=0;entryX=0.5;entryY=0;entryDx=0;entryDy=0;" edge="1" parent="1" source="qPN71Jb9sZiX0jhi6P6f-16" target="qPN71Jb9sZiX0jhi6P6f-18">
          <mxGeometry relative="1" as="geometry" />
        </mxCell>
        <mxCell id="qPN71Jb9sZiX0jhi6P6f-16" value="model:hybrid&#xa;FNDSB" style="shape=hexagon;perimeter=hexagonPerimeter2;fillColor=#b0e3e6;strokeColor=#0e8088;" name="model" vertex="1" parent="1">
          <mxGeometry x="640" y="740" width="120" height="50" as="geometry" />
        </mxCell>
        <mxCell id="qPN71Jb9sZiX0jhi6P6f-24" style="edgeStyle=orthogonalEdgeStyle;rounded=0;orthogonalLoop=1;jettySize=auto;html=1;exitX=1;exitY=0.5;exitDx=0;exitDy=0;entryX=0;entryY=0.5;entryDx=0;entryDy=0;" edge="1" parent="1" source="qPN71Jb9sZiX0jhi6P6f-18" target="qPN71Jb9sZiX0jhi6P6f-23">
          <mxGeometry relative="1" as="geometry" />
        </mxCell>
        <mxCell id="qPN71Jb9sZiX0jhi6P6f-18" value="infer:deduce" style="rounded=1;whiteSpace=wrap;html=1;arcSize=50;fillColor=#bac8d3;strokeColor=#23445d;" name="infer:deduce" vertex="1" parent="1">
          <mxGeometry x="650" y="870" width="100" height="50" as="geometry" />
        </mxCell>
        <mxCell id="qPN71Jb9sZiX0jhi6P6f-22" style="edgeStyle=orthogonalEdgeStyle;rounded=0;orthogonalLoop=1;jettySize=auto;html=1;exitX=1;exitY=0.5;exitDx=0;exitDy=0;entryX=0;entryY=0.5;entryDx=0;entryDy=0;" edge="1" parent="1" source="qPN71Jb9sZiX0jhi6P6f-21" target="qPN71Jb9sZiX0jhi6P6f-18">
          <mxGeometry relative="1" as="geometry" />
        </mxCell>
        <mxCell id="qPN71Jb9sZiX0jhi6P6f-21" value="data&#xa;Patient Symptoms" style="rectangle;fillColor=#fff2cc;strokeColor=#d6b656;" name="data" vertex="1" parent="1">
          <mxGeometry x="470" y="870" width="100" height="50" as="geometry" />
        </mxCell>
        <mxCell id="qPN71Jb9sZiX0jhi6P6f-26" style="edgeStyle=orthogonalEdgeStyle;rounded=0;orthogonalLoop=1;jettySize=auto;html=1;exitX=1;exitY=0.5;exitDx=0;exitDy=0;entryX=0;entryY=0.5;entryDx=0;entryDy=0;" edge="1" parent="1" source="qPN71Jb9sZiX0jhi6P6f-23" target="qPN71Jb9sZiX0jhi6P6f-25">
          <mxGeometry relative="1" as="geometry" />
        </mxCell>
        <mxCell id="qPN71Jb9sZiX0jhi6P6f-23" value="symbol&#xa;Condition and&#xa;Severity" style="rectangle;fillColor=#dae8fc;strokeColor=#6c8ebf;" name="symbol" vertex="1" parent="1" tooltip="⚠️ Node not part of any valid pattern.">
          <mxGeometry x="830" y="870" width="100" height="50" as="geometry" />
        </mxCell>
        <mxCell id="qPN71Jb9sZiX0jhi6P6f-28" style="edgeStyle=orthogonalEdgeStyle;rounded=0;orthogonalLoop=1;jettySize=auto;html=1;exitX=1;exitY=0.5;exitDx=0;exitDy=0;entryX=0;entryY=0.5;entryDx=0;entryDy=0;" edge="1" parent="1" source="qPN71Jb9sZiX0jhi6P6f-25" target="qPN71Jb9sZiX0jhi6P6f-27">
          <mxGeometry relative="1" as="geometry" />
        </mxCell>
        <mxCell id="qPN71Jb9sZiX0jhi6P6f-25" value="transform" style="rounded=1;whiteSpace=wrap;html=1;arcSize=50;fillColor=#f8cecc;strokeColor=#b85450;" name="transform" vertex="1" parent="1" tooltip="⚠️ Node not part of any valid pattern.">
          <mxGeometry x="1010" y="870" width="100" height="50" as="geometry" />
        </mxCell>
        <mxCell id="qPN71Jb9sZiX0jhi6P6f-27" value="symbol&#xa;Diagnosis +&#xa;Recommended&#xa;Actions" style="rectangle;fillColor=#dae8fc;strokeColor=#6c8ebf;" name="symbol" vertex="1" parent="1" tooltip="⚠️ Node not part of any valid pattern.">
          <mxGeometry x="1190" y="870" width="100" height="50" as="geometry" />
        </mxCell>
      </root>
    </mxGraphModel>
  </diagram>
</mxfile>
